<?xml version="1.0" encoding="UTF-8" standalone="no"?>
<svg
   xmlns:dc="http://purl.org/dc/elements/1.1/"
   xmlns:cc="http://creativecommons.org/ns#"
   xmlns:rdf="http://www.w3.org/1999/02/22-rdf-syntax-ns#"
   xmlns:svg="http://www.w3.org/2000/svg"
   xmlns="http://www.w3.org/2000/svg"
   xmlns:sodipodi="http://sodipodi.sourceforge.net/DTD/sodipodi-0.dtd"
   xmlns:inkscape="http://www.inkscape.org/namespaces/inkscape"
   version="1.1"
   id="Warstwa_1"
   x="0px"
   y="0px"
   viewBox="0 0 160 90"
   xml:space="preserve"
   sodipodi:docname="noimage.svg"
   width="160"
   height="90"
   inkscape:version="1.0 (4035a4f, 2020-05-01)"><metadata
   id="metadata35"><rdf:RDF><cc:Work
       rdf:about=""><dc:format>image/svg+xml</dc:format><dc:type
         rdf:resource="http://purl.org/dc/dcmitype/StillImage" /><dc:title></dc:title></cc:Work></rdf:RDF></metadata><defs
   id="defs33" /><sodipodi:namedview
   inkscape:document-rotation="0"
   pagecolor="#ffffff"
   bordercolor="#666666"
   borderopacity="1"
   objecttolerance="10"
   gridtolerance="10"
   guidetolerance="10"
   inkscape:pageopacity="0"
   inkscape:pageshadow="2"
   inkscape:window-width="1430"
   inkscape:window-height="646"
   id="namedview31"
   showgrid="false"
   fit-margin-top="3"
   fit-margin-left="18"
   fit-margin-right="18"
   fit-margin-bottom="3"
   lock-margins="false"
   inkscape:zoom="2.3805928"
   inkscape:cx="5.4286223"
   inkscape:cy="31.462046"
   inkscape:window-x="0"
   inkscape:window-y="23"
   inkscape:window-maximized="0"
   inkscape:current-layer="Warstwa_1" />
<style
   type="text/css"
   id="style10">
	.st0{fill:none;stroke:#B3B3B3;stroke-width:4;stroke-miterlimit:10;}
	.st1{fill:#B3B3B3;}
	.st2{fill:#B3B3B3;stroke:#FFFFFF;stroke-width:4;stroke-miterlimit:10;}
	.st3{fill:none;stroke:#FFFFFF;stroke-width:4;stroke-linecap:round;stroke-miterlimit:10;}
</style>
<path
   class="st0"
   d="M 134,85 H 26 c -3.3,0 -6,-2.7 -6,-6 V 11 c 0,-3.3 2.7,-6 6,-6 h 108 c 3.3,0 6,2.7 6,6 v 68 c 0,3.3 -2.7,6 -6,6 z"
   id="path12" />
<g
   id="g16"
   transform="translate(0,-15)">
	<path
   class="st1"
   d="M 140.9,95.7 V 82.3 c 0,-0.8 -0.3,-1.5 -0.8,-2.1 l -34.5,-42 c -1.4,-1.6 -3.9,-1.6 -5.2,0 L 70.1,76.5 c -1.3,1.7 -3.9,1.7 -5.2,0 L 51.5,60.2 c -1.4,-1.7 -3.9,-1.6 -5.2,0.1 l -26,33.3 c -1.7,2.2 -0.1,5.4 2.6,5.4 h 114.7 c 1.8,0 3.3,-1.5 3.3,-3.3 z"
   id="path14" />
</g>
<g
   id="g20"
   transform="translate(0,-15)">
	<circle
   class="st1"
   cx="47.5"
   cy="42.5"
   r="7.5"
   id="circle18" />
</g>

</svg>
