<?xml version="1.0" encoding="utf-8"?>
<!-- Generator: Adobe Illustrator 22.0.1, SVG Export Plug-In . SVG Version: 6.00 Build 0)  -->
<svg version="1.1" id="Warstwa_1" xmlns="http://www.w3.org/2000/svg" xmlns:xlink="http://www.w3.org/1999/xlink" x="0px" y="0px"
	 viewBox="0 0 160 120" style="enable-background:new 0 0 160 120;" xml:space="preserve">
<style type="text/css">
	.st0{fill:none;stroke:#B3B3B3;stroke-width:4;stroke-miterlimit:10;}
	.st1{fill:#B3B3B3;}
	.st2{fill:#B3B3B3;stroke:#FFFFFF;stroke-width:4;stroke-miterlimit:10;}
	.st3{fill:none;stroke:#FFFFFF;stroke-width:4;stroke-linecap:round;stroke-miterlimit:10;}
</style>
<path class="st0" d="M134,100H26c-3.3,0-6-2.7-6-6V26c0-3.3,2.7-6,6-6h108c3.3,0,6,2.7,6,6v68C140,97.3,137.3,100,134,100z"/>
<g>
	<path class="st1" d="M140.9,95.7V82.3c0-0.8-0.3-1.5-0.8-2.1l-34.5-42c-1.4-1.6-3.9-1.6-5.2,0L70.1,76.5c-1.3,1.7-3.9,1.7-5.2,0
		L51.5,60.2c-1.4-1.7-3.9-1.6-5.2,0.1l-26,33.3c-1.7,2.2-0.1,5.4,2.6,5.4h114.7C139.4,99,140.9,97.5,140.9,95.7z"/>
</g>
<g>
	<circle class="st1" cx="47.5" cy="42.5" r="7.5"/>
</g>
<g>
	<circle class="st2" cx="135" cy="91" r="23"/>
	<line class="st3" x1="127.9" y1="98.1" x2="142.1" y2="83.9"/>
	<line class="st3" x1="127.9" y1="83.9" x2="142.1" y2="98.1"/>
</g>
</svg>
