<?xml version="1.0" encoding="UTF-8" standalone="no"?>
<svg
   xmlns:dc="http://purl.org/dc/elements/1.1/"
   xmlns:cc="http://creativecommons.org/ns#"
   xmlns:rdf="http://www.w3.org/1999/02/22-rdf-syntax-ns#"
   xmlns:svg="http://www.w3.org/2000/svg"
   xmlns="http://www.w3.org/2000/svg"
   xmlns:sodipodi="http://sodipodi.sourceforge.net/DTD/sodipodi-0.dtd"
   xmlns:inkscape="http://www.inkscape.org/namespaces/inkscape"
   inkscape:version="1.0 (4035a4f, 2020-05-01)"
   sodipodi:docname="pic.svg"
   id="svg88"
   version="1.1"
   overflow="visible"
   viewBox="0 0 54.699371 54.699371"
   preserveAspectRatio="xMidYMid meet"
   height="54.699371"
   width="54.699371">
  <metadata
     id="metadata92">
    <rdf:RDF>
      <cc:Work
         rdf:about="">
        <dc:format>image/svg+xml</dc:format>
        <dc:type
           rdf:resource="http://purl.org/dc/dcmitype/StillImage" />
        <dc:title></dc:title>
      </cc:Work>
    </rdf:RDF>
  </metadata>
  <sodipodi:namedview
     inkscape:current-layer="svg88"
     inkscape:window-maximized="0"
     inkscape:window-y="23"
     inkscape:window-x="0"
     inkscape:cy="40.691348"
     inkscape:cx="153.5309"
     inkscape:zoom="2.1716669"
     fit-margin-bottom="0"
     fit-margin-right="0"
     fit-margin-left="0"
     fit-margin-top="0"
     inkscape:pagecheckerboard="true"
     showgrid="false"
     id="namedview90"
     inkscape:window-height="690"
     inkscape:window-width="1468"
     inkscape:pageshadow="2"
     inkscape:pageopacity="0"
     guidetolerance="10"
     gridtolerance="10"
     objecttolerance="10"
     borderopacity="1"
     bordercolor="#666666"
     pagecolor="#ffffff" />
  <defs
     id="SvgjsDefs1115">
    <linearGradient
       y2="5"
       x2="95"
       y1="95"
       x1="5"
       gradientUnits="userSpaceOnUse"
       id="SvgjsLinearGradientdK8lI-Ssh">
      <stop
         offset="0.05"
         stop-color="#ddabb2"
         id="SvgjsStop1118" />
      <stop
         offset="0.95"
         stop-color="#b9505e"
         id="SvgjsStop1119" />
    </linearGradient>
  </defs>
  <g
     id="SvgjsG1120"
     class="WnM5in50c"
     transform="matrix(0.60777079,0,0,0.60777079,-3.038854,-3.038854)"
     light-content="false"
     non-strokable="false"
     fill="#ffffff">
    <path
       d="M 50,35 C 42.185,35 35.755,41.009 35.068,48.648 A 0.991,0.991 0 0 0 35.04,49.206 C 35.026,49.471 35,49.732 35,50 c 0,8.271 6.729,15 15,15 8.271,0 15,-6.729 15,-15 0,-8.271 -6.729,-15 -15,-15 z m 4.079,27.335 2.628,-2.628 a 0.99984899,0.99984899 0 1 0 -1.414,-1.414 l -4,4 A 0.988,0.988 0 0 0 51.01,62.949 C 50.676,62.975 50.341,63 50,63 c -0.817,0 -1.613,-0.085 -2.388,-0.229 0.03,-0.024 0.067,-0.035 0.095,-0.063 l 4,-4 a 0.99984899,0.99984899 0 1 0 -1.414,-1.414 l -4,4 a 0.996,0.996 0 0 0 -0.207,1.103 12.97,12.97 0 0 1 -2.79,-1.278 l 3.411,-3.41 a 0.99984899,0.99984899 0 1 0 -1.414,-1.414 l -3.65,3.65 a 13.055,13.055 0 0 1 -1.586,-1.586 l 3.65,-3.65 a 0.99984899,0.99984899 0 1 0 -1.414,-1.414 l -3.411,3.41 a 12.952,12.952 0 0 1 -1.038,-2.134 l 3.862,-3.862 a 0.99984899,0.99984899 0 1 0 -1.414,-1.414 l -3.067,3.067 A 13.052,13.052 0 0 1 37,50 c 0,-0.208 0.021,-0.411 0.031,-0.617 l 3.676,-3.676 a 0.99984899,0.99984899 0 1 0 -1.414,-1.414 l -1.628,1.628 C 39.381,40.747 44.257,37 50,37 c 7.168,0 13,5.832 13,13 0,5.742 -3.746,10.619 -8.921,12.335 z"
       id="path79" />
    <path
       d="m 86.063,35.063 c 1.02,-6.916 -0.286,-12.925 -4.242,-16.881 a 0.99984899,0.99984899 0 1 0 -1.414,1.414 c 3.355,3.355 4.565,8.386 3.891,14.246 C 80.805,31.557 76.59,29.625 71.847,28.155 67.57,14.357 59.383,5 50,5 44.422,5 39.267,8.307 35.103,13.885 a 29.54,29.54 0 0 0 -4.321,-0.332 c -5.217,0 -9.575,1.6 -12.602,4.626 -3.896,3.895 -5.364,9.794 -4.298,16.925 C 8.306,39.269 5,44.423 5,50 c 0,5.596 3.327,10.768 8.938,14.938 -1.019,6.918 0.286,12.927 4.243,16.883 3.103,3.104 7.465,4.575 12.54,4.575 5.771,-0.001 12.46,-1.922 19.255,-5.498 4.348,2.308 8.689,3.963 12.805,4.832 C 59.123,90.318 54.727,93 50,93 a 1,1 0 1 0 0,2 c 5.578,0 10.733,-3.307 14.896,-8.886 1.48,0.22 2.924,0.332 4.322,0.332 5.217,0 9.574,-1.6 12.602,-4.626 4.804,-4.804 5.918,-12.653 3.139,-22.103 -0.945,-3.218 -2.316,-6.495 -4.044,-9.755 2.304,-4.38 3.911,-8.713 4.763,-12.787 C 90.299,40.842 93,45.255 93,50 a 1,1 0 1 0 2,0 C 95,44.405 91.674,39.233 86.063,35.063 Z M 50,7 c 8.271,0 15.535,8.209 19.589,20.497 A 71.163,71.163 0 0 0 60.083,25.641 C 52.564,19.82 44.538,15.816 37.219,14.271 40.877,9.682 45.273,7 50,7 Z m 23,43 c 0,3.194 -0.193,6.305 -0.549,9.302 a 78.93,78.93 0 0 1 -6.188,6.962 C 61.088,71.44 55.516,75.618 50.021,78.663 a 66.94,66.94 0 0 1 -6.21,-3.905 C 45.836,74.913 47.899,75 50,75 a 1,1 0 1 0 0,-2 78.89,78.89 0 0 1 -9.286,-0.547 78.472,78.472 0 0 1 -6.977,-6.189 C 28.652,61.178 24.429,55.618 21.328,49.996 A 67.12,67.12 0 0 1 25.244,43.781 80.775,80.775 0 0 0 25,50 a 1,1 0 1 0 2,0 c 0,-3.193 0.193,-6.302 0.548,-9.298 a 78.982,78.982 0 0 1 6.189,-6.964 0.99984899,0.99984899 0 1 0 -1.414,-1.414 80.518,80.518 0 0 0 -4.227,4.573 67.22,67.22 0 0 1 1.628,-7.172 C 35.769,27.988 42.672,27 50,27 c 3.189,0 6.294,0.192 9.287,0.546 A 78.786,78.786 0 0 1 72.452,40.697 C 72.807,43.695 73,46.806 73,50 Z m 1.756,-6.222 a 66.014,66.014 0 0 1 3.916,6.226 67.17,67.17 0 0 1 -3.916,6.219 C 74.912,54.188 75,52.112 75,50 75,47.888 74.912,45.813 74.756,43.778 Z M 36.888,71.902 c -8.354,-1.434 -15.597,-4.2 -20.863,-7.829 0.695,-3.778 2.112,-7.839 4.197,-11.981 3.124,5.399 7.226,10.711 12.101,15.586 a 81.469,81.469 0 0 0 4.565,4.224 z M 20.243,47.929 C 18.864,45.178 17.757,42.425 16.96,39.718 a 37.788,37.788 0 0 1 -0.909,-3.809 c 3.166,-2.177 7.04,-4.044 11.445,-5.498 a 71.247,71.247 0 0 0 -1.855,9.501 71.338,71.338 0 0 0 -5.398,8.017 z M 30.411,27.497 c 1.452,-4.402 3.318,-8.274 5.493,-11.438 6.414,1.166 13.481,4.384 20.285,9.184 A 80.5,80.5 0 0 0 50,25 c -7.018,0 -13.664,0.898 -19.589,2.497 z m 37.267,4.825 a 80.78,80.78 0 0 0 -4.564,-4.225 c 2.494,0.428 4.889,0.974 7.162,1.626 a 67.256,67.256 0 0 1 1.626,7.158 83.241,83.241 0 0 0 -4.224,-4.559 z M 19.595,19.594 c 2.644,-2.644 6.512,-4.041 11.188,-4.041 0.984,0 2,0.079 3.029,0.195 -2.271,3.484 -4.194,7.683 -5.657,12.405 -4.729,1.465 -8.933,3.391 -12.42,5.667 -0.703,-6.031 0.605,-10.971 3.86,-14.226 z M 7,50 c 0,-4.727 2.683,-9.124 7.272,-12.782 a 40.51,40.51 0 0 0 0.77,3.064 c 0.946,3.218 2.316,6.495 4.044,9.757 -2.304,4.379 -3.911,8.713 -4.763,12.786 C 9.701,59.158 7,54.745 7,50 Z M 19.595,80.406 C 16.24,77.051 15.029,72.02 15.704,66.16 c 6.175,4.038 14.612,6.973 24.214,8.199 a 71.814,71.814 0 0 0 8.015,5.408 c -11.552,5.821 -22.49,6.489 -28.338,0.639 z m 32.471,-0.659 c 5.318,-3.06 10.651,-7.108 15.611,-12.069 a 80.82,80.82 0 0 0 4.226,-4.57 c -1.431,8.338 -4.189,15.57 -7.808,20.834 -3.84,-0.698 -7.913,-2.125 -12.029,-4.195 z M 83.041,60.282 c 2.563,8.715 1.627,15.861 -2.635,20.124 -2.644,2.643 -6.512,4.04 -11.188,4.04 -0.984,0 -2,-0.079 -3.03,-0.195 4.022,-6.169 6.946,-14.584 8.17,-24.159 a 71.39,71.39 0 0 0 5.4,-8.02 c 1.379,2.75 2.486,5.504 3.283,8.21 z M 79.779,47.909 a 71.36,71.36 0 0 0 -5.424,-8.021 71.235,71.235 0 0 0 -1.852,-9.477 c 4.417,1.457 8.301,3.331 11.472,5.516 -0.695,3.778 -2.112,7.839 -4.196,11.982 z"
       id="path81" />
  </g>
</svg>
